<svg xmlns="http://www.w3.org/2000/svg" xmlns:xlink="http://www.w3.org/1999/xlink" xmlns:serif="http://www.serif.com/" width="100%" height="100%" viewBox="0 0 10121 10121" xml:space="preserve" style="fill-rule:evenodd;clip-rule:evenodd;stroke-linejoin:round;stroke-miterlimit:2;">  <path d="M10117.2,5060.05c0,2792.98 -2264.17,5057.15 -5057.15,5057.15c-2792.98,0 -5057.15,-2264.17 -5057.15,-5057.15c0,-2792.98 2264.17,-5057.15 5057.15,-5057.15c2792.98,0 5057.15,2264.17 5057.15,5057.15" style="fill:#fff;fill-rule:nonzero;"></path>  <path d="M5060.04,10120.1c-683.099,0 -1345.77,-133.789 -1969.6,-397.656c-602.552,-254.857 -1143.7,-619.701 -1608.4,-1084.4c-464.7,-464.701 -829.544,-1005.85 -1084.4,-1608.4c-263.867,-623.815 -397.643,-1286.48 -397.643,-1969.6c0,-683.099 133.776,-1345.77 397.643,-1969.6c254.857,-602.552 619.701,-1143.68 1084.4,-1608.4c464.701,-464.7 1005.85,-829.544 1608.4,-1084.4c623.828,-263.867 1286.5,-397.643 1969.6,-397.643c683.099,0 1345.77,133.776 1969.6,397.643c602.553,254.857 1143.7,619.701 1608.4,1084.4c464.7,464.714 829.557,1005.85 1084.4,1608.4c263.867,623.828 397.656,1286.5 397.656,1969.6c0,683.112 -133.789,1345.78 -397.656,1969.6c-254.844,602.553 -619.701,1143.7 -1084.4,1608.4c-464.701,464.7 -1005.85,829.544 -1608.4,1084.4c-623.828,263.867 -1286.5,397.656 -1969.6,397.656Zm-197.678,-125.694c65.684,2.562 131.583,3.845 197.678,3.845c666.706,0 1313.41,-130.534 1922.13,-388.008c588.034,-248.724 1116.16,-604.804 1569.71,-1058.35c453.568,-453.594 809.635,-981.706 1058.33,-1569.7c257.474,-608.723 388.021,-1255.43 388.021,-1922.15c0,-666.719 -130.547,-1313.41 -388.021,-1922.13c-248.698,-587.982 -604.765,-1116.11 -1058.33,-1569.7c-453.555,-453.542 -981.68,-809.622 -1569.71,-1058.35c-608.736,-257.474 -1255.43,-388.021 -1922.13,-388.021c-666.693,-0 -1313.4,130.547 -1922.13,388.021c-588.021,248.711 -1116.15,604.791 -1569.7,1058.35c-453.568,453.568 -809.635,981.693 -1058.35,1569.7c-257.474,608.724 -388.021,1255.43 -388.021,1922.13c-0,666.719 130.547,1313.42 388.021,1922.15c248.711,588.007 604.778,1116.13 1058.35,1569.7c453.555,453.555 981.68,809.622 1569.7,1058.35c409.263,173.108 835.695,288.835 1273.83,346.089l-0,-1801.63c-107.136,-20.859 -212.396,-46.94 -315.417,-78.307c-1099.87,-334.948 -1947.67,-1251.77 -2185.01,-2390.2c-0.065,-0.313 -0.104,-0.625 -0.169,-0.938l-321.589,0l0.156,0.938c215.691,1146.98 991.745,2095.34 2033.46,2550.72c152.448,66.64 310.26,123.294 473.151,167.877l0,1181.03c-161.016,-32.643 -318.607,-74.635 -473.151,-123.529c-1878.5,-594.322 -3244.39,-2352.81 -3244.39,-4425.3c-0,-2321.65 1713.63,-4250.08 3942.4,-4588.15c177.213,-26.888 357.604,-43.984 540.729,-50.143c0.156,-0.013 0.299,-0.013 0.443,-0.013l-0,428.333c-0.144,0.013 -0.287,0.026 -0.443,0.026l-0,315.651c0.156,0 0.299,-0.013 0.443,-0.026l-0,406.081c-0.144,-0 -0.287,0.026 -0.443,0.026c-184.414,8.229 -364.831,31.51 -540.729,67.252c-423.294,86.029 -818.711,248.581 -1171.18,472.579l-379.74,-232.24c454.818,-322.591 981.472,-550.273 1550.92,-653.789l-0,-320.534c-1994.21,332.956 -3514.31,2066.21 -3514.31,4154.95c-0,1837.11 1176.18,3398.74 2816.3,3975.07l-0,-336.667c-1266.09,-487.721 -2215.05,-1617.98 -2445.99,-2989.19c-29.518,-175.274 -47.942,-354.258 -53.151,-536.55l406.654,0c0.013,0.078 0.013,0.156 0.026,0.235l315.43,-0c-0,-0.079 -0.013,-0.157 -0.013,-0.235l450.599,0c7.5,184.206 33.724,363.529 76.002,536.55c279.232,1142.72 1278.11,2002.96 2489.62,2072.11l-0,2232.64l0.013,0l-0,3.452Zm-2929.56,-5700.92c120.196,-499.206 358.477,-952.904 683.477,-1329.69l19.063,753.763c-99.935,180.456 -180.131,373.373 -237.422,575.925c-49.18,173.88 -82.045,354.609 -95.743,540.729l-1174.65,0c9.479,-183.893 31.992,-364.375 66.198,-540.729c179.557,-925.768 687.839,-1735.46 1397.96,-2302.6l13.281,525.364c-492.24,471.732 -846.55,1086.25 -996.445,1777.24l324.283,-0Zm4463.52,3096.21c807.383,-473.177 1349.93,-1349.26 1349.93,-2352.7c0,-501.315 -135.455,-970.924 -371.536,-1374.51l18.581,-734.844c499.544,561.433 803.567,1300.5 803.567,2109.35c0,1258.71 -736.38,2347.7 -1800.55,2861.42l0,348.125c1244.26,-534.076 2115.98,-1769.67 2115.98,-3209.55c-0,-1006.75 -426.172,-1913.58 -1107.84,-2550.61l13.138,-519.57c912.54,713.763 1500.25,1824.4 1500.25,3070.18c-0,1664.83 -1049.62,3088.23 -2521.52,3645.69c-174.752,66.185 -355.104,120.886 -540.729,161.589c-0.638,0.13 -1.263,0.312 -1.901,0.456l0,-1211.88c0.638,-0.209 1.263,-0.443 1.901,-0.651c190.3,-61.224 371.224,-143.177 540.729,-242.513Zm-1400.61,89.541c-646.69,-0.002 -1254.67,-251.838 -1711.94,-709.101c-457.279,-457.292 -709.115,-1065.27 -709.115,-1711.95c0,-334.532 66.836,-657.852 198.737,-961.875l-0.326,-12.813l-53.463,-2114.56l1375.68,841.328c286.471,-114.909 589.258,-173.151 900.443,-173.151l-0,0.008c312.431,0.001 616.309,58.673 903.689,174.427l1377.79,-842.604l-54.102,2139.17c128.555,300.586 193.685,619.857 193.685,950.065c0,646.693 -251.836,1254.67 -709.114,1711.95c-457.279,457.279 -1065.26,709.115 -1711.95,709.115l-0,-0.008Zm0.008,-4730.03c-306.003,0 -603.437,59.014 -884.036,175.42l-26.367,10.937l-1248.46,-763.515l45.885,1814.35l86.875,-50.17l-73.385,159.87c-139.011,302.839 -209.493,626.524 -209.493,962.084c0,1273.16 1035.8,2308.96 2308.98,2308.97l0.008,-0.001l-0.001,-320.729l-0.003,0.004l-0,0.012l-0.007,-0.006l-0.006,0.006l-0,-0.012l-154.532,-151.667l154.518,-0l0.02,113.76l0.01,-60.672l0.001,-4198.64Zm-0.001,4297.21l154.528,-151.663l-154.518,-0l-0.01,53.088l0,98.575Zm-354.841,-389.373c-37.213,0 -67.383,-46.927 -67.383,-104.818c0,-57.877 30.17,-104.804 67.383,-104.804c37.214,-0 67.383,46.927 67.383,104.804c0,57.891 -30.169,104.818 -67.383,104.818Zm698.744,0c37.213,0 67.383,-46.927 67.383,-104.818c-0,-57.877 -30.17,-104.804 -67.383,-104.804c-37.214,-0 -67.383,46.927 -67.383,104.804c-0,57.891 30.169,104.818 67.383,104.818Zm-319.556,-4346.24c-397.93,-0 -775.755,85.416 -1116.42,238.711l-449.831,-275.105c462.357,-263.463 996.901,-414.218 1566.25,-414.218c562.591,-0 1091.37,147.2 1550.19,404.804l-451.823,276.328c-336.041,-148.112 -707.552,-230.52 -1098.37,-230.52Zm698.095,-1107.99c563.542,102.344 1085.21,326.276 1536.86,643.399l-380.13,232.474c-348.933,-219.076 -739.284,-378.308 -1156.73,-463.021c-175.768,-35.677 -356.107,-58.711 -540.378,-66.914l0,-1150.07c183.008,6.132 363.268,23.203 540.378,50.039c2229.15,337.734 3943.19,2266.34 3943.19,4588.27c-0,2506.41 -1997.12,4554.83 -4483.57,4638.31l0,-1465.51l-0.768,-382.2l0,-252.292c122.799,-8.333 243.242,-25.325 360.755,-50.39l0,188.554c0.169,-0.039 0.339,-0.065 0.495,-0.091l0,1505.08c106.419,-13.06 211.615,-30.052 315.43,-50.885c1927.57,-386.901 3379.57,-2089.1 3379.57,-4130.57c0,-2089.02 -1520.51,-3822.46 -3515.1,-4155.08l-0,320.898Z"></path></svg>