<svg id="Livello_1" data-name="Livello 1" xmlns="http://www.w3.org/2000/svg" viewBox="0 0 210.42 151.99"><defs><style>.cls-1{fill:#fff;}</style></defs><path class="cls-1" d="M228.44,127.45c-2.73-.25-3.48-2.33-6.09-2a5,5,0,0,0-.88-3c-6.15-1.46-12.65.9-12.18,6.74a6.15,6.15,0,0,0,3.05,4.79c2.79,1.3,6.45-.1,9.57-.22,5.15-.2,15.88,1.49,15.88-3.92C237.79,125,231,127.69,228.44,127.45Z" transform="translate(-27.37 -16.24)"/><path class="cls-1" d="M205.81,135.5c-.61-.45-1-1.45-1.74-1.74-3.5-1.29-7.37,1.11-9.13,2.39.84,2,2.18,4.73,5.22,5,.9.08,2.37-.63,4.35-.87,2.49-.3,4.13-.15,4.13-2.18C208.64,136.54,207.26,136.57,205.81,135.5Z" transform="translate(-27.37 -16.24)"/><path class="cls-1" d="M201.9,67.4a16.63,16.63,0,0,0-5.23-.44c-5.3.49-8.85,3.92-14.14,4.57-4.93.61-8.62-2.69-12.18-1.52-2.87.95-3,4.66-2.18,7.83.59,2.18,2.66,5.13,3.05,7.83.34,2.38-.16,4.65,0,6.75.31,4,1.53,8.18,4.57,9.14,3.66,1.16,7.58-.8,9.79-2.61,3.1-2.54,4.26-7.53,7.62-8.93s6.52-1.21,9.13-2.6a14.64,14.64,0,0,0,5.22-5C211.11,75.81,206.38,69,201.9,67.4Z" transform="translate(-27.37 -16.24)"/><path class="cls-1" d="M204.07,119.84c-.14-4.83-7.27-8-11.53-8.92s-8.49,1.16-12.19.87c-4.22-.33-6.93-2.5-12.39-1.74-2.38.33-5.08,1-6.53,3-2.12,2.92-.84,8.28-2.18,12.62-.55,1.79-1.94,3.53-2,4.79,0,1.45.82,2,1.09,3.26.63,3,.09,5.48,2,6.53,1.59.9,5.43.64,7.62,0,5.78-1.7,8.72-7.11,15.23-7.83,1.76-.2,3.48.11,5.22-.22a29.7,29.7,0,0,0,9.13-3.7C200.29,126.82,204.17,123.2,204.07,119.84Z" transform="translate(-27.37 -16.24)"/><path class="cls-1" d="M129.88,48.69c0,2.34,2.07,3.17,3.26,4.35,2.48,5.61,9.33,6.46,17.63,7,3.72.23,6.44-.54,9.35-.65,2.12-.08,4.49.36,7,.22,5.17-.3,8.64-2.14,13.06-3.92,3.66-1.48,9.16-4.18,9.14-7.83,0-4.54-7.59-7.34-12.19-8.92-5.8-2-11.1-3.65-18.06-3.27-5.41.3-7.06,3.55-10.66,5.66a20.56,20.56,0,0,1-6.52,2.39C136.94,44.45,129.91,44.34,129.88,48.69Z" transform="translate(-27.37 -16.24)"/><path class="cls-1" d="M159.25,147.91c-6.37-5-12.12-9.4-17.84-14.15,8.24-12.27,20.37-20.73,18.93-42.21C159,70.79,141,60.83,121,56.74c-21.71-4.42-46.54,1.18-62.88,8.48,7.19,2.31,12.74,6.27,14.14,14.36C62.85,83.26,51.09,77,47,70.88,50.42,68.73,54.3,67,57.86,65c-8.13-3.62-14.39-9.1-16.1-19.14-1.2,9.88.65,19.57,5,25.24-8.63,6.3-18.67,15.71-19.36,29.59C26.78,113.16,35,121.07,43.94,124c6.93,2.24,15.41.39,21.54,4.35,4.67,3,6.51,9.2,7.18,15.89.45,4.48.67,8.61,2.61,12.18a22.26,22.26,0,0,0,18.06,11.75c8,.67,12.35-2.79,17.41-5.88,11.13-6.79,19.31-15.66,27.63-24.58,5.11,4.29,11.58,9.21,17.4,13.92,1.36,1.1,4.19,4.49,6.31,4.35a3.27,3.27,0,0,0,2.61-3C164.53,151.37,160.37,148.77,159.25,147.91ZM73.53,80.45c2.61,1.7,6.29,5,9.57,7.62.84.65,3.19,1.75,3.26,2.39.15,1.2-2.27,2.25-3,3.05-4.78-4.14-9.8-8.05-14.79-12C69.33,81.09,72.82,81.71,73.53,80.45Zm8.27,32.86c-4.59.35-11.43-1-11.54-4.79-.1-3.57,4.52-4.4,8.06-4.78,4-.43,11.84.51,12,4.56C90.38,111.7,84.92,113.07,81.8,113.31Zm56.13,24.15C120.45,123.1,102.71,109,85.06,94.81c.68-1.28,2-1.94,2.61-3.26q26.82,21,53.52,42.21A12.88,12.88,0,0,1,137.93,137.46Z" transform="translate(-27.37 -16.24)"/><path class="cls-1" d="M76.57,45.86c1.23,5,6.12,3.26,11.75,3.26,3.75,0,6.56.77,9.36,0,3.08-.85,4.61-3.12,7.4-4.78a19.44,19.44,0,0,1,9.35-2.83c2.23-.15,4.41.17,7.18,0,6.72-.42,15-2.93,15-8,0-4.61-4.75-4.83-8.28-6.09a25.63,25.63,0,0,1-6.08-3.27c-4.86-3.55-6.81-9.12-15-7.61-6,1.1-5.46,6.13-11.75,8.48-4.44,1.66-12.14-.45-15.88,2.61-1.48,1.22-2.78,4.13-3.05,7-.18,2,.51,4.2.44,6.52C76.94,43.07,76.14,44,76.57,45.86Z" transform="translate(-27.37 -16.24)"/></svg>